<mxfile host="app.diagrams.net" agent="Mozilla/5.0 (Windows NT 10.0; Win64; x64) AppleWebKit/537.36 (KHTML, like Gecko) Chrome/136.0.0.0 Safari/537.36 Edg/136.0.0.0" version="27.0.4">
  <diagram name="Page-1" id="ZYf831US5Ws_xNqcaatE">
    <mxGraphModel dx="1845" dy="1075" grid="1" gridSize="10" guides="1" tooltips="1" connect="1" arrows="1" fold="1" page="1" pageScale="1" pageWidth="850" pageHeight="1100" math="0" shadow="0">
      <root>
        <mxCell id="0" />
        <mxCell id="1" parent="0" />
        <mxCell id="URucYH_-T2ktDc5tmtGz-3" value="" style="edgeStyle=orthogonalEdgeStyle;rounded=0;orthogonalLoop=1;jettySize=auto;html=1;" edge="1" parent="1" source="URucYH_-T2ktDc5tmtGz-1" target="URucYH_-T2ktDc5tmtGz-2">
          <mxGeometry relative="1" as="geometry" />
        </mxCell>
        <mxCell id="URucYH_-T2ktDc5tmtGz-1" value="" style="ellipse;whiteSpace=wrap;html=1;aspect=fixed;fillColor=light-dark(#000000,#000000);" vertex="1" parent="1">
          <mxGeometry x="545" y="30" width="30" height="30" as="geometry" />
        </mxCell>
        <mxCell id="URucYH_-T2ktDc5tmtGz-5" value="" style="edgeStyle=orthogonalEdgeStyle;rounded=0;orthogonalLoop=1;jettySize=auto;html=1;" edge="1" parent="1" source="URucYH_-T2ktDc5tmtGz-2" target="URucYH_-T2ktDc5tmtGz-4">
          <mxGeometry relative="1" as="geometry" />
        </mxCell>
        <mxCell id="URucYH_-T2ktDc5tmtGz-6" value="Yes" style="edgeLabel;html=1;align=center;verticalAlign=middle;resizable=0;points=[];fontSize=14;" vertex="1" connectable="0" parent="URucYH_-T2ktDc5tmtGz-5">
          <mxGeometry x="-0.193" y="5" relative="1" as="geometry">
            <mxPoint x="-5" as="offset" />
          </mxGeometry>
        </mxCell>
        <mxCell id="URucYH_-T2ktDc5tmtGz-8" value="" style="edgeStyle=orthogonalEdgeStyle;rounded=0;orthogonalLoop=1;jettySize=auto;html=1;" edge="1" parent="1" source="URucYH_-T2ktDc5tmtGz-2" target="URucYH_-T2ktDc5tmtGz-7">
          <mxGeometry relative="1" as="geometry" />
        </mxCell>
        <mxCell id="URucYH_-T2ktDc5tmtGz-9" value="No" style="edgeLabel;html=1;align=center;verticalAlign=middle;resizable=0;points=[];fontSize=19;" vertex="1" connectable="0" parent="URucYH_-T2ktDc5tmtGz-8">
          <mxGeometry x="0.1111" y="-4" relative="1" as="geometry">
            <mxPoint y="3" as="offset" />
          </mxGeometry>
        </mxCell>
        <mxCell id="URucYH_-T2ktDc5tmtGz-2" value="Have Account" style="rhombus;whiteSpace=wrap;html=1;fillColor=none;" vertex="1" parent="1">
          <mxGeometry x="512.5" y="92" width="95" height="100" as="geometry" />
        </mxCell>
        <mxCell id="URucYH_-T2ktDc5tmtGz-13" value="" style="edgeStyle=orthogonalEdgeStyle;rounded=0;orthogonalLoop=1;jettySize=auto;html=1;" edge="1" parent="1" source="URucYH_-T2ktDc5tmtGz-4" target="URucYH_-T2ktDc5tmtGz-12">
          <mxGeometry relative="1" as="geometry" />
        </mxCell>
        <mxCell id="URucYH_-T2ktDc5tmtGz-4" value="Login" style="whiteSpace=wrap;html=1;fillColor=none;" vertex="1" parent="1">
          <mxGeometry x="500" y="244" width="120" height="40" as="geometry" />
        </mxCell>
        <mxCell id="URucYH_-T2ktDc5tmtGz-11" value="" style="edgeStyle=orthogonalEdgeStyle;rounded=0;orthogonalLoop=1;jettySize=auto;html=1;" edge="1" parent="1" source="URucYH_-T2ktDc5tmtGz-7" target="URucYH_-T2ktDc5tmtGz-10">
          <mxGeometry relative="1" as="geometry" />
        </mxCell>
        <mxCell id="URucYH_-T2ktDc5tmtGz-7" value="Register" style="whiteSpace=wrap;html=1;fillColor=none;" vertex="1" parent="1">
          <mxGeometry x="34" y="123" width="120" height="38" as="geometry" />
        </mxCell>
        <mxCell id="URucYH_-T2ktDc5tmtGz-16" style="edgeStyle=orthogonalEdgeStyle;rounded=0;orthogonalLoop=1;jettySize=auto;html=1;" edge="1" parent="1" source="URucYH_-T2ktDc5tmtGz-10" target="URucYH_-T2ktDc5tmtGz-17">
          <mxGeometry relative="1" as="geometry">
            <mxPoint x="390" y="320" as="targetPoint" />
          </mxGeometry>
        </mxCell>
        <mxCell id="URucYH_-T2ktDc5tmtGz-21" value="" style="edgeStyle=orthogonalEdgeStyle;rounded=0;orthogonalLoop=1;jettySize=auto;html=1;" edge="1" parent="1" source="URucYH_-T2ktDc5tmtGz-10" target="URucYH_-T2ktDc5tmtGz-20">
          <mxGeometry relative="1" as="geometry" />
        </mxCell>
        <mxCell id="URucYH_-T2ktDc5tmtGz-10" value="Create Account" style="rhombus;whiteSpace=wrap;html=1;fillColor=none;" vertex="1" parent="1">
          <mxGeometry x="54" y="204" width="80" height="80" as="geometry" />
        </mxCell>
        <mxCell id="URucYH_-T2ktDc5tmtGz-49" value="" style="edgeStyle=orthogonalEdgeStyle;rounded=0;orthogonalLoop=1;jettySize=auto;html=1;" edge="1" parent="1" source="URucYH_-T2ktDc5tmtGz-12" target="URucYH_-T2ktDc5tmtGz-48">
          <mxGeometry relative="1" as="geometry" />
        </mxCell>
        <mxCell id="URucYH_-T2ktDc5tmtGz-51" value="Citizen" style="edgeLabel;html=1;align=center;verticalAlign=middle;resizable=0;points=[];fontSize=14;" vertex="1" connectable="0" parent="URucYH_-T2ktDc5tmtGz-49">
          <mxGeometry x="-0.1199" y="5" relative="1" as="geometry">
            <mxPoint x="3" y="-4" as="offset" />
          </mxGeometry>
        </mxCell>
        <mxCell id="URucYH_-T2ktDc5tmtGz-57" value="" style="edgeStyle=orthogonalEdgeStyle;rounded=0;orthogonalLoop=1;jettySize=auto;html=1;" edge="1" parent="1" source="URucYH_-T2ktDc5tmtGz-12" target="URucYH_-T2ktDc5tmtGz-56">
          <mxGeometry relative="1" as="geometry" />
        </mxCell>
        <mxCell id="URucYH_-T2ktDc5tmtGz-58" value="Admin" style="edgeLabel;html=1;align=center;verticalAlign=middle;resizable=0;points=[];fontSize=14;" vertex="1" connectable="0" parent="URucYH_-T2ktDc5tmtGz-57">
          <mxGeometry x="-0.1865" y="5" relative="1" as="geometry">
            <mxPoint y="4" as="offset" />
          </mxGeometry>
        </mxCell>
        <mxCell id="URucYH_-T2ktDc5tmtGz-12" value="User" style="rhombus;whiteSpace=wrap;html=1;fillColor=none;" vertex="1" parent="1">
          <mxGeometry x="537" y="330" width="45" height="46" as="geometry" />
        </mxCell>
        <mxCell id="URucYH_-T2ktDc5tmtGz-47" style="edgeStyle=orthogonalEdgeStyle;rounded=0;orthogonalLoop=1;jettySize=auto;html=1;exitX=1;exitY=0;exitDx=0;exitDy=0;entryX=0;entryY=0.75;entryDx=0;entryDy=0;" edge="1" parent="1" source="URucYH_-T2ktDc5tmtGz-17" target="URucYH_-T2ktDc5tmtGz-4">
          <mxGeometry relative="1" as="geometry">
            <Array as="points">
              <mxPoint x="154" y="360" />
              <mxPoint x="180" y="360" />
              <mxPoint x="180" y="274" />
            </Array>
          </mxGeometry>
        </mxCell>
        <mxCell id="URucYH_-T2ktDc5tmtGz-17" value="Admin" style="rounded=0;whiteSpace=wrap;html=1;fillColor=none;" vertex="1" parent="1">
          <mxGeometry x="34" y="345" width="120" height="30" as="geometry" />
        </mxCell>
        <mxCell id="URucYH_-T2ktDc5tmtGz-46" style="edgeStyle=orthogonalEdgeStyle;rounded=0;orthogonalLoop=1;jettySize=auto;html=1;exitX=1;exitY=0.5;exitDx=0;exitDy=0;entryX=0;entryY=0.25;entryDx=0;entryDy=0;" edge="1" parent="1" source="URucYH_-T2ktDc5tmtGz-20" target="URucYH_-T2ktDc5tmtGz-4">
          <mxGeometry relative="1" as="geometry">
            <Array as="points">
              <mxPoint x="312" y="254" />
            </Array>
          </mxGeometry>
        </mxCell>
        <mxCell id="URucYH_-T2ktDc5tmtGz-20" value="Citizen" style="whiteSpace=wrap;html=1;fillColor=none;" vertex="1" parent="1">
          <mxGeometry x="192" y="229" width="120" height="30" as="geometry" />
        </mxCell>
        <mxCell id="URucYH_-T2ktDc5tmtGz-96" style="edgeStyle=orthogonalEdgeStyle;rounded=0;orthogonalLoop=1;jettySize=auto;html=1;exitX=0.5;exitY=1;exitDx=0;exitDy=0;" edge="1" parent="1" source="URucYH_-T2ktDc5tmtGz-29">
          <mxGeometry relative="1" as="geometry">
            <mxPoint x="633.7407407407406" y="570" as="targetPoint" />
          </mxGeometry>
        </mxCell>
        <mxCell id="URucYH_-T2ktDc5tmtGz-29" value="Admin Dashboard" style="rounded=0;whiteSpace=wrap;html=1;fillColor=none;" vertex="1" parent="1">
          <mxGeometry x="574" y="490" width="120" height="40" as="geometry" />
        </mxCell>
        <mxCell id="URucYH_-T2ktDc5tmtGz-82" style="edgeStyle=orthogonalEdgeStyle;rounded=0;orthogonalLoop=1;jettySize=auto;html=1;exitX=0.5;exitY=1;exitDx=0;exitDy=0;" edge="1" parent="1" source="URucYH_-T2ktDc5tmtGz-36">
          <mxGeometry relative="1" as="geometry">
            <mxPoint x="180" y="530" as="targetPoint" />
          </mxGeometry>
        </mxCell>
        <mxCell id="URucYH_-T2ktDc5tmtGz-36" value="Citizen Dashboard" style="whiteSpace=wrap;html=1;fillColor=none;" vertex="1" parent="1">
          <mxGeometry x="120" y="415" width="120" height="60" as="geometry" />
        </mxCell>
        <mxCell id="URucYH_-T2ktDc5tmtGz-42" value="" style="edgeStyle=orthogonalEdgeStyle;rounded=0;orthogonalLoop=1;jettySize=auto;html=1;" edge="1" parent="1" source="URucYH_-T2ktDc5tmtGz-40" target="URucYH_-T2ktDc5tmtGz-36">
          <mxGeometry relative="1" as="geometry" />
        </mxCell>
        <mxCell id="URucYH_-T2ktDc5tmtGz-55" value="Verified" style="edgeLabel;html=1;align=center;verticalAlign=middle;resizable=0;points=[];fontSize=14;" vertex="1" connectable="0" parent="URucYH_-T2ktDc5tmtGz-42">
          <mxGeometry x="-0.169" y="1" relative="1" as="geometry">
            <mxPoint as="offset" />
          </mxGeometry>
        </mxCell>
        <mxCell id="URucYH_-T2ktDc5tmtGz-52" style="edgeStyle=orthogonalEdgeStyle;rounded=0;orthogonalLoop=1;jettySize=auto;html=1;exitX=1;exitY=0.5;exitDx=0;exitDy=0;entryX=0.5;entryY=1;entryDx=0;entryDy=0;" edge="1" parent="1" source="URucYH_-T2ktDc5tmtGz-40" target="URucYH_-T2ktDc5tmtGz-12">
          <mxGeometry relative="1" as="geometry" />
        </mxCell>
        <mxCell id="URucYH_-T2ktDc5tmtGz-53" value="Not Verified" style="edgeLabel;html=1;align=center;verticalAlign=middle;resizable=0;points=[];fontSize=14;" vertex="1" connectable="0" parent="URucYH_-T2ktDc5tmtGz-52">
          <mxGeometry x="-0.4961" y="3" relative="1" as="geometry">
            <mxPoint x="16" y="3" as="offset" />
          </mxGeometry>
        </mxCell>
        <mxCell id="URucYH_-T2ktDc5tmtGz-40" value="Send Otp" style="rhombus;whiteSpace=wrap;html=1;fillColor=none;" vertex="1" parent="1">
          <mxGeometry x="338" y="416" width="75" height="60" as="geometry" />
        </mxCell>
        <mxCell id="URucYH_-T2ktDc5tmtGz-61" style="edgeStyle=orthogonalEdgeStyle;rounded=0;orthogonalLoop=1;jettySize=auto;html=1;exitX=0;exitY=0.5;exitDx=0;exitDy=0;" edge="1" parent="1" source="URucYH_-T2ktDc5tmtGz-44">
          <mxGeometry relative="1" as="geometry">
            <mxPoint x="560" y="438" as="targetPoint" />
          </mxGeometry>
        </mxCell>
        <mxCell id="URucYH_-T2ktDc5tmtGz-64" value="No" style="edgeLabel;html=1;align=center;verticalAlign=middle;resizable=0;points=[];fontSize=14;" vertex="1" connectable="0" parent="URucYH_-T2ktDc5tmtGz-61">
          <mxGeometry x="-0.1776" y="-1" relative="1" as="geometry">
            <mxPoint x="1" as="offset" />
          </mxGeometry>
        </mxCell>
        <mxCell id="URucYH_-T2ktDc5tmtGz-63" style="edgeStyle=orthogonalEdgeStyle;rounded=0;orthogonalLoop=1;jettySize=auto;html=1;exitX=0.5;exitY=1;exitDx=0;exitDy=0;entryX=1;entryY=0.5;entryDx=0;entryDy=0;" edge="1" parent="1" source="URucYH_-T2ktDc5tmtGz-44" target="URucYH_-T2ktDc5tmtGz-29">
          <mxGeometry relative="1" as="geometry" />
        </mxCell>
        <mxCell id="URucYH_-T2ktDc5tmtGz-65" value="Yes" style="edgeLabel;html=1;align=center;verticalAlign=middle;resizable=0;points=[];fontSize=14;" vertex="1" connectable="0" parent="URucYH_-T2ktDc5tmtGz-63">
          <mxGeometry x="0.1111" y="4" relative="1" as="geometry">
            <mxPoint x="-3" y="-5" as="offset" />
          </mxGeometry>
        </mxCell>
        <mxCell id="URucYH_-T2ktDc5tmtGz-44" value="Match Credentials?" style="rhombus;whiteSpace=wrap;html=1;fillColor=none;" vertex="1" parent="1">
          <mxGeometry x="700" y="396" width="100" height="84" as="geometry" />
        </mxCell>
        <mxCell id="URucYH_-T2ktDc5tmtGz-50" style="edgeStyle=orthogonalEdgeStyle;rounded=0;orthogonalLoop=1;jettySize=auto;html=1;exitX=0.5;exitY=1;exitDx=0;exitDy=0;entryX=0.5;entryY=0;entryDx=0;entryDy=0;" edge="1" parent="1" source="URucYH_-T2ktDc5tmtGz-48" target="URucYH_-T2ktDc5tmtGz-40">
          <mxGeometry relative="1" as="geometry" />
        </mxCell>
        <mxCell id="URucYH_-T2ktDc5tmtGz-48" value="Enter Phone Number" style="whiteSpace=wrap;html=1;fillColor=none;" vertex="1" parent="1">
          <mxGeometry x="315" y="334.5" width="120" height="37" as="geometry" />
        </mxCell>
        <mxCell id="URucYH_-T2ktDc5tmtGz-59" style="edgeStyle=orthogonalEdgeStyle;rounded=0;orthogonalLoop=1;jettySize=auto;html=1;exitX=0.5;exitY=1;exitDx=0;exitDy=0;entryX=0.5;entryY=0;entryDx=0;entryDy=0;" edge="1" parent="1" source="URucYH_-T2ktDc5tmtGz-56" target="URucYH_-T2ktDc5tmtGz-44">
          <mxGeometry relative="1" as="geometry" />
        </mxCell>
        <mxCell id="URucYH_-T2ktDc5tmtGz-56" value="Enter Credentials" style="rounded=0;whiteSpace=wrap;html=1;fillColor=none;" vertex="1" parent="1">
          <mxGeometry x="694" y="336.5" width="120" height="35" as="geometry" />
        </mxCell>
        <mxCell id="URucYH_-T2ktDc5tmtGz-116" style="edgeStyle=orthogonalEdgeStyle;rounded=0;orthogonalLoop=1;jettySize=auto;html=1;exitX=0.5;exitY=1;exitDx=0;exitDy=0;entryX=0;entryY=0.5;entryDx=0;entryDy=0;" edge="1" parent="1" source="URucYH_-T2ktDc5tmtGz-66" target="URucYH_-T2ktDc5tmtGz-115">
          <mxGeometry relative="1" as="geometry" />
        </mxCell>
        <mxCell id="URucYH_-T2ktDc5tmtGz-66" value="Submit Incident" style="rounded=0;whiteSpace=wrap;html=1;fillColor=none;" vertex="1" parent="1">
          <mxGeometry x="14" y="634" width="120" height="30" as="geometry" />
        </mxCell>
        <mxCell id="URucYH_-T2ktDc5tmtGz-118" style="edgeStyle=orthogonalEdgeStyle;rounded=0;orthogonalLoop=1;jettySize=auto;html=1;exitX=0.25;exitY=1;exitDx=0;exitDy=0;entryX=0;entryY=0.5;entryDx=0;entryDy=0;" edge="1" parent="1" source="URucYH_-T2ktDc5tmtGz-77" target="URucYH_-T2ktDc5tmtGz-115">
          <mxGeometry relative="1" as="geometry" />
        </mxCell>
        <mxCell id="URucYH_-T2ktDc5tmtGz-77" value="View Updates" style="rounded=0;whiteSpace=wrap;html=1;fillColor=none;" vertex="1" parent="1">
          <mxGeometry x="280" y="634" width="120" height="30" as="geometry" />
        </mxCell>
        <mxCell id="URucYH_-T2ktDc5tmtGz-83" value="" style="endArrow=none;html=1;rounded=0;strokeWidth=3;" edge="1" parent="1">
          <mxGeometry width="50" height="50" relative="1" as="geometry">
            <mxPoint x="70" y="530" as="sourcePoint" />
            <mxPoint x="430" y="530" as="targetPoint" />
          </mxGeometry>
        </mxCell>
        <mxCell id="URucYH_-T2ktDc5tmtGz-117" style="edgeStyle=orthogonalEdgeStyle;rounded=0;orthogonalLoop=1;jettySize=auto;html=1;exitX=0.5;exitY=1;exitDx=0;exitDy=0;entryX=0;entryY=0.5;entryDx=0;entryDy=0;" edge="1" parent="1" source="URucYH_-T2ktDc5tmtGz-84" target="URucYH_-T2ktDc5tmtGz-115">
          <mxGeometry relative="1" as="geometry" />
        </mxCell>
        <mxCell id="URucYH_-T2ktDc5tmtGz-84" value="Receive Alerts" style="rounded=0;whiteSpace=wrap;html=1;fillColor=none;" vertex="1" parent="1">
          <mxGeometry x="150" y="634" width="120" height="30" as="geometry" />
        </mxCell>
        <mxCell id="URucYH_-T2ktDc5tmtGz-124" style="edgeStyle=orthogonalEdgeStyle;rounded=0;orthogonalLoop=1;jettySize=auto;html=1;entryX=1;entryY=0.5;entryDx=0;entryDy=0;" edge="1" parent="1" source="URucYH_-T2ktDc5tmtGz-85" target="URucYH_-T2ktDc5tmtGz-115">
          <mxGeometry relative="1" as="geometry" />
        </mxCell>
        <mxCell id="URucYH_-T2ktDc5tmtGz-85" value="View Reports" style="rounded=0;whiteSpace=wrap;html=1;fillColor=none;" vertex="1" parent="1">
          <mxGeometry x="417" y="634" width="120" height="30" as="geometry" />
        </mxCell>
        <mxCell id="URucYH_-T2ktDc5tmtGz-86" value="" style="endArrow=none;html=1;rounded=0;strokeWidth=4;" edge="1" parent="1">
          <mxGeometry width="50" height="50" relative="1" as="geometry">
            <mxPoint x="490" y="570" as="sourcePoint" />
            <mxPoint x="790.9876844618055" y="570" as="targetPoint" />
          </mxGeometry>
        </mxCell>
        <mxCell id="URucYH_-T2ktDc5tmtGz-102" value="" style="edgeStyle=orthogonalEdgeStyle;rounded=0;orthogonalLoop=1;jettySize=auto;html=1;" edge="1" parent="1" source="URucYH_-T2ktDc5tmtGz-88" target="URucYH_-T2ktDc5tmtGz-101">
          <mxGeometry relative="1" as="geometry" />
        </mxCell>
        <mxCell id="URucYH_-T2ktDc5tmtGz-88" value="Verify Reports" style="rounded=0;whiteSpace=wrap;html=1;fillColor=none;" vertex="1" parent="1">
          <mxGeometry x="550" y="634" width="120" height="30" as="geometry" />
        </mxCell>
        <mxCell id="URucYH_-T2ktDc5tmtGz-126" style="edgeStyle=orthogonalEdgeStyle;rounded=0;orthogonalLoop=1;jettySize=auto;html=1;exitX=1;exitY=1;exitDx=0;exitDy=0;entryX=1;entryY=0.5;entryDx=0;entryDy=0;" edge="1" parent="1" source="URucYH_-T2ktDc5tmtGz-89" target="URucYH_-T2ktDc5tmtGz-115">
          <mxGeometry relative="1" as="geometry" />
        </mxCell>
        <mxCell id="URucYH_-T2ktDc5tmtGz-89" value="Update Status" style="rounded=0;whiteSpace=wrap;html=1;fillColor=none;" vertex="1" parent="1">
          <mxGeometry x="710" y="634" width="120" height="30" as="geometry" />
        </mxCell>
        <mxCell id="URucYH_-T2ktDc5tmtGz-127" style="edgeStyle=orthogonalEdgeStyle;rounded=0;orthogonalLoop=1;jettySize=auto;html=1;exitX=0.75;exitY=1;exitDx=0;exitDy=0;entryX=1;entryY=0.5;entryDx=0;entryDy=0;" edge="1" parent="1" source="URucYH_-T2ktDc5tmtGz-90" target="URucYH_-T2ktDc5tmtGz-115">
          <mxGeometry relative="1" as="geometry" />
        </mxCell>
        <mxCell id="URucYH_-T2ktDc5tmtGz-90" value="Send Citizen Notification" style="rounded=0;whiteSpace=wrap;html=1;fillColor=none;" vertex="1" parent="1">
          <mxGeometry x="640" y="710" width="150" height="30" as="geometry" />
        </mxCell>
        <mxCell id="URucYH_-T2ktDc5tmtGz-91" value="" style="endArrow=classic;html=1;rounded=0;entryX=0.457;entryY=0.085;entryDx=0;entryDy=0;entryPerimeter=0;" edge="1" parent="1" target="URucYH_-T2ktDc5tmtGz-66">
          <mxGeometry width="50" height="50" relative="1" as="geometry">
            <mxPoint x="70" y="530" as="sourcePoint" />
            <mxPoint x="72.34000000000006" y="633.55" as="targetPoint" />
          </mxGeometry>
        </mxCell>
        <mxCell id="URucYH_-T2ktDc5tmtGz-92" value="" style="endArrow=classic;html=1;rounded=0;entryX=0.313;entryY=0.062;entryDx=0;entryDy=0;entryPerimeter=0;" edge="1" parent="1" target="URucYH_-T2ktDc5tmtGz-84">
          <mxGeometry width="50" height="50" relative="1" as="geometry">
            <mxPoint x="190" y="530" as="sourcePoint" />
            <mxPoint x="190" y="630" as="targetPoint" />
          </mxGeometry>
        </mxCell>
        <mxCell id="URucYH_-T2ktDc5tmtGz-93" value="" style="endArrow=classic;html=1;rounded=0;entryX=0.307;entryY=-0.073;entryDx=0;entryDy=0;entryPerimeter=0;" edge="1" parent="1" target="URucYH_-T2ktDc5tmtGz-77">
          <mxGeometry width="50" height="50" relative="1" as="geometry">
            <mxPoint x="317.44" y="530" as="sourcePoint" />
            <mxPoint x="315.44" y="636" as="targetPoint" />
          </mxGeometry>
        </mxCell>
        <mxCell id="URucYH_-T2ktDc5tmtGz-94" value="" style="endArrow=classic;html=1;rounded=0;entryX=0.068;entryY=-0.018;entryDx=0;entryDy=0;entryPerimeter=0;" edge="1" parent="1" target="URucYH_-T2ktDc5tmtGz-85">
          <mxGeometry width="50" height="50" relative="1" as="geometry">
            <mxPoint x="425.6" y="530" as="sourcePoint" />
            <mxPoint x="425" y="630" as="targetPoint" />
          </mxGeometry>
        </mxCell>
        <mxCell id="URucYH_-T2ktDc5tmtGz-95" value="" style="endArrow=classic;html=1;rounded=0;entryX=0.311;entryY=-0.063;entryDx=0;entryDy=0;entryPerimeter=0;" edge="1" parent="1" target="URucYH_-T2ktDc5tmtGz-88">
          <mxGeometry width="50" height="50" relative="1" as="geometry">
            <mxPoint x="587" y="570" as="sourcePoint" />
            <mxPoint x="590" y="540" as="targetPoint" />
          </mxGeometry>
        </mxCell>
        <mxCell id="URucYH_-T2ktDc5tmtGz-99" value="" style="endArrow=classic;html=1;rounded=0;entryX=0.5;entryY=0;entryDx=0;entryDy=0;" edge="1" parent="1" target="URucYH_-T2ktDc5tmtGz-89">
          <mxGeometry width="50" height="50" relative="1" as="geometry">
            <mxPoint x="769.63" y="570.89" as="sourcePoint" />
            <mxPoint x="769.63" y="632.89" as="targetPoint" />
          </mxGeometry>
        </mxCell>
        <mxCell id="URucYH_-T2ktDc5tmtGz-100" value="" style="endArrow=classic;html=1;rounded=0;entryX=0.363;entryY=-0.045;entryDx=0;entryDy=0;entryPerimeter=0;" edge="1" parent="1" target="URucYH_-T2ktDc5tmtGz-90">
          <mxGeometry width="50" height="50" relative="1" as="geometry">
            <mxPoint x="694" y="571" as="sourcePoint" />
            <mxPoint x="694" y="633" as="targetPoint" />
          </mxGeometry>
        </mxCell>
        <mxCell id="URucYH_-T2ktDc5tmtGz-104" value="" style="edgeStyle=orthogonalEdgeStyle;rounded=0;orthogonalLoop=1;jettySize=auto;html=1;" edge="1" parent="1" source="URucYH_-T2ktDc5tmtGz-101" target="URucYH_-T2ktDc5tmtGz-103">
          <mxGeometry relative="1" as="geometry" />
        </mxCell>
        <mxCell id="URucYH_-T2ktDc5tmtGz-105" value="No" style="edgeLabel;html=1;align=center;verticalAlign=middle;resizable=0;points=[];fontSize=14;" vertex="1" connectable="0" parent="URucYH_-T2ktDc5tmtGz-104">
          <mxGeometry x="-0.0552" y="2" relative="1" as="geometry">
            <mxPoint y="-2" as="offset" />
          </mxGeometry>
        </mxCell>
        <mxCell id="URucYH_-T2ktDc5tmtGz-107" value="" style="edgeStyle=orthogonalEdgeStyle;rounded=0;orthogonalLoop=1;jettySize=auto;html=1;" edge="1" parent="1" source="URucYH_-T2ktDc5tmtGz-101" target="URucYH_-T2ktDc5tmtGz-106">
          <mxGeometry relative="1" as="geometry" />
        </mxCell>
        <mxCell id="URucYH_-T2ktDc5tmtGz-108" value="&lt;font style=&quot;font-size: 14px;&quot;&gt;Yes&lt;/font&gt;" style="edgeLabel;html=1;align=center;verticalAlign=middle;resizable=0;points=[];" vertex="1" connectable="0" parent="URucYH_-T2ktDc5tmtGz-107">
          <mxGeometry x="-0.3651" y="-2" relative="1" as="geometry">
            <mxPoint x="2" y="3" as="offset" />
          </mxGeometry>
        </mxCell>
        <mxCell id="URucYH_-T2ktDc5tmtGz-101" value="Report&amp;nbsp;&lt;div&gt;Valid ?&lt;/div&gt;" style="rhombus;whiteSpace=wrap;html=1;fillColor=none;" vertex="1" parent="1">
          <mxGeometry x="541.5" y="710" width="80" height="80" as="geometry" />
        </mxCell>
        <mxCell id="URucYH_-T2ktDc5tmtGz-120" style="edgeStyle=orthogonalEdgeStyle;rounded=0;orthogonalLoop=1;jettySize=auto;html=1;entryX=0.5;entryY=0;entryDx=0;entryDy=0;" edge="1" parent="1" source="URucYH_-T2ktDc5tmtGz-103" target="URucYH_-T2ktDc5tmtGz-115">
          <mxGeometry relative="1" as="geometry">
            <Array as="points">
              <mxPoint x="405" y="800" />
              <mxPoint x="405" y="800" />
            </Array>
          </mxGeometry>
        </mxCell>
        <mxCell id="URucYH_-T2ktDc5tmtGz-103" value="Dismiss Report" style="whiteSpace=wrap;html=1;fillColor=none;" vertex="1" parent="1">
          <mxGeometry x="336" y="735" width="120" height="30" as="geometry" />
        </mxCell>
        <mxCell id="URucYH_-T2ktDc5tmtGz-109" style="edgeStyle=orthogonalEdgeStyle;rounded=0;orthogonalLoop=1;jettySize=auto;html=1;exitX=1;exitY=0.5;exitDx=0;exitDy=0;entryX=0.75;entryY=1;entryDx=0;entryDy=0;" edge="1" parent="1" source="URucYH_-T2ktDc5tmtGz-106" target="URucYH_-T2ktDc5tmtGz-89">
          <mxGeometry relative="1" as="geometry" />
        </mxCell>
        <mxCell id="URucYH_-T2ktDc5tmtGz-125" style="edgeStyle=orthogonalEdgeStyle;rounded=0;orthogonalLoop=1;jettySize=auto;html=1;exitX=0.5;exitY=1;exitDx=0;exitDy=0;entryX=1;entryY=0.5;entryDx=0;entryDy=0;" edge="1" parent="1" source="URucYH_-T2ktDc5tmtGz-106" target="URucYH_-T2ktDc5tmtGz-115">
          <mxGeometry relative="1" as="geometry" />
        </mxCell>
        <mxCell id="URucYH_-T2ktDc5tmtGz-106" value="Assigm Response Team" style="whiteSpace=wrap;html=1;fillColor=none;" vertex="1" parent="1">
          <mxGeometry x="521.5" y="833" width="120" height="40" as="geometry" />
        </mxCell>
        <mxCell id="URucYH_-T2ktDc5tmtGz-110" style="edgeStyle=orthogonalEdgeStyle;rounded=0;orthogonalLoop=1;jettySize=auto;html=1;exitX=1;exitY=0;exitDx=0;exitDy=0;entryX=0.63;entryY=1.063;entryDx=0;entryDy=0;entryPerimeter=0;" edge="1" parent="1" source="URucYH_-T2ktDc5tmtGz-106" target="URucYH_-T2ktDc5tmtGz-90">
          <mxGeometry relative="1" as="geometry">
            <Array as="points">
              <mxPoint x="735" y="833" />
            </Array>
          </mxGeometry>
        </mxCell>
        <mxCell id="URucYH_-T2ktDc5tmtGz-113" value="" style="ellipse;whiteSpace=wrap;html=1;aspect=fixed;fillColor=light-dark(#000000,#000000);" vertex="1" parent="1">
          <mxGeometry x="390" y="975" width="30" height="30" as="geometry" />
        </mxCell>
        <mxCell id="URucYH_-T2ktDc5tmtGz-115" value="" style="ellipse;whiteSpace=wrap;html=1;aspect=fixed;fillColor=none;" vertex="1" parent="1">
          <mxGeometry x="385" y="971" width="40" height="40" as="geometry" />
        </mxCell>
        <mxCell id="URucYH_-T2ktDc5tmtGz-122" value="" style="endArrow=classic;html=1;rounded=0;entryX=0.686;entryY=-0.012;entryDx=0;entryDy=0;entryPerimeter=0;" edge="1" parent="1" target="URucYH_-T2ktDc5tmtGz-85">
          <mxGeometry width="50" height="50" relative="1" as="geometry">
            <mxPoint x="500" y="571.89" as="sourcePoint" />
            <mxPoint x="500" y="633.89" as="targetPoint" />
          </mxGeometry>
        </mxCell>
        <mxCell id="URucYH_-T2ktDc5tmtGz-128" value="" style="shape=mxgraph.arrows2.wedgeArrow;html=1;bendable=0;startWidth=17.77777777777778;defaultFillColor=invert;defaultGradientColor=invert;rounded=0;strokeColor=light-dark(#000000,#FFFFFF);" edge="1" parent="1">
          <mxGeometry width="100" height="100" relative="1" as="geometry">
            <mxPoint x="582" y="970" as="sourcePoint" />
            <mxPoint x="582" y="990" as="targetPoint" />
          </mxGeometry>
        </mxCell>
        <mxCell id="URucYH_-T2ktDc5tmtGz-129" value="" style="shape=mxgraph.arrows2.wedgeArrow;html=1;bendable=0;startWidth=17.77777777777778;defaultFillColor=invert;defaultGradientColor=invert;rounded=0;strokeColor=light-dark(#000000,#FFFFFF);" edge="1" parent="1">
          <mxGeometry width="100" height="100" relative="1" as="geometry">
            <mxPoint x="752.58" y="970" as="sourcePoint" />
            <mxPoint x="752.58" y="990" as="targetPoint" />
          </mxGeometry>
        </mxCell>
        <mxCell id="URucYH_-T2ktDc5tmtGz-131" value="" style="shape=mxgraph.arrows2.wedgeArrow;html=1;bendable=0;startWidth=17.77777777777778;defaultFillColor=invert;defaultGradientColor=invert;rounded=0;strokeColor=light-dark(#000000,#FFFFFF);" edge="1" parent="1">
          <mxGeometry width="100" height="100" relative="1" as="geometry">
            <mxPoint x="478" y="970" as="sourcePoint" />
            <mxPoint x="478" y="990" as="targetPoint" />
          </mxGeometry>
        </mxCell>
        <mxCell id="URucYH_-T2ktDc5tmtGz-133" value="" style="shape=mxgraph.arrows2.wedgeArrow;html=1;bendable=0;startWidth=17.77777777777778;defaultFillColor=invert;defaultGradientColor=invert;rounded=0;strokeColor=light-dark(#000000,#FFFFFF);" edge="1" parent="1">
          <mxGeometry width="100" height="100" relative="1" as="geometry">
            <mxPoint x="310" y="970" as="sourcePoint" />
            <mxPoint x="310" y="990" as="targetPoint" />
          </mxGeometry>
        </mxCell>
        <mxCell id="URucYH_-T2ktDc5tmtGz-134" value="" style="shape=mxgraph.arrows2.wedgeArrow;html=1;bendable=0;startWidth=17.77777777777778;defaultFillColor=invert;defaultGradientColor=invert;rounded=0;strokeColor=light-dark(#000000,#FFFFFF);" edge="1" parent="1">
          <mxGeometry width="100" height="100" relative="1" as="geometry">
            <mxPoint x="209.69" y="970" as="sourcePoint" />
            <mxPoint x="209.69" y="990" as="targetPoint" />
          </mxGeometry>
        </mxCell>
        <mxCell id="URucYH_-T2ktDc5tmtGz-135" value="" style="shape=mxgraph.arrows2.wedgeArrow;html=1;bendable=0;startWidth=17.77777777777778;defaultFillColor=invert;defaultGradientColor=invert;rounded=0;strokeColor=light-dark(#000000,#FFFFFF);" edge="1" parent="1">
          <mxGeometry width="100" height="100" relative="1" as="geometry">
            <mxPoint x="73.63999999999999" y="970" as="sourcePoint" />
            <mxPoint x="73.63999999999999" y="990" as="targetPoint" />
          </mxGeometry>
        </mxCell>
      </root>
    </mxGraphModel>
  </diagram>
</mxfile>
